<?xml version="1.0" standalone="no"?>
<!DOCTYPE svg PUBLIC "-//W3C//DTD SVG 20010904//EN"
 "http://www.w3.org/TR/2001/REC-SVG-20010904/DTD/svg10.dtd">
<svg version="1.0" xmlns="http://www.w3.org/2000/svg"
 width="1920.000000pt" height="1080.000000pt" viewBox="0 0 1920.000000 1080.000000"
 preserveAspectRatio="xMidYMid meet">

<g transform="translate(0.000000,1080.000000) scale(0.100000,-0.100000)"
fill="#000000" stroke="none">
<path d="M7 10793 c-4 -3 -7 -765 -7 -1692 l0 -1686 332 -132 c183 -73 918
-364 1633 -648 715 -284 1872 -743 2570 -1020 699 -277 1684 -667 2190 -868
506 -200 930 -367 941 -371 25 -8 62 7 2119 824 792 315 1735 688 2095 830
588 232 1202 475 4305 1708 484 192 1360 539 1948 772 l1067 423 -2 931 -3
931 -9591 3 c-5275 1 -9594 -1 -9597 -5z"/>
<path d="M19080 7889 c-52 -21 -682 -271 -1399 -554 -717 -284 -1828 -724
-2470 -979 -641 -255 -1564 -622 -2051 -814 -487 -193 -1227 -486 -1645 -652
-2578 -1024 -3762 -1493 -3802 -1505 -16 -4 -246 82 -815 309 -436 173 -1049
416 -1363 539 -313 124 -793 314 -1065 422 -660 262 -3043 1207 -3800 1506
-333 132 -615 244 -628 249 -13 6 -27 10 -32 10 -6 0 -10 -191 -10 -504 0
-471 1 -504 18 -511 9 -3 91 -35 182 -70 156 -60 1328 -524 2475 -980 286
-114 754 -299 1040 -412 286 -113 860 -340 1275 -505 2313 -920 2647 -1051
2691 -1055 39 -4 67 4 180 50 185 76 844 335 899 354 25 8 68 26 95 39 54 25
992 396 1065 421 25 8 68 26 95 39 54 25 991 395 1065 421 25 8 68 26 95 39
83 38 1096 436 1150 451 11 3 26 11 33 16 14 11 962 387 1042 413 51 17 88 32
110 45 8 5 22 12 30 16 45 20 932 367 970 379 25 8 55 19 68 25 12 5 32 13 45
18 12 5 42 18 67 30 44 20 294 121 355 143 17 6 44 17 60 24 48 22 515 204
565 220 51 17 83 30 121 50 23 12 190 78 378 150 36 14 80 31 96 39 40 19 508
202 565 221 51 17 83 30 121 50 23 12 190 78 378 150 36 14 80 31 96 39 40 19
508 202 565 221 51 17 83 30 121 50 23 12 190 78 378 150 36 14 80 31 96 39
42 20 515 206 540 212 11 3 32 10 48 17 l27 11 0 502 c0 396 -3 503 -12 502
-7 0 -56 -18 -108 -40z"/>
<path d="M18755 6251 c-231 -92 -708 -282 -1060 -421 -352 -139 -1016 -402
-1475 -585 -841 -335 -1347 -535 -1780 -705 -129 -51 -662 -263 -1185 -470
-522 -208 -1044 -415 -1160 -460 -309 -122 -1497 -593 -1975 -783 -1434 -571
-2415 -957 -2433 -957 -12 0 -244 88 -516 197 -1550 614 -3234 1282 -3351
1328 -74 29 -488 193 -920 365 -432 171 -909 360 -1060 420 -151 60 -520 206
-820 325 -300 120 -597 236 -660 260 -63 24 -169 66 -235 93 l-120 50 -3
-2441 c-1 -1343 0 -2448 3 -2455 3 -10 1928 -12 9597 -10 l9593 3 3 3208 c2
2562 0 3207 -10 3206 -7 0 -202 -76 -433 -168z"/>
</g>
</svg>
